<svg xmlns="http://www.w3.org/2000/svg" width="208" height="372" viewBox="16 0 208 372">
    <defs>
        <filter id="a" width="105.9%" height="105.9%" x="-2.9%" y="-2.9%" filterUnits="objectBoundingBox">
            <feGaussianBlur in="SourceGraphic" stdDeviation="3.477"/>
        </filter>
    </defs>
    <g fill="#F79369" fill-rule="evenodd">
        <path fill-opacity=".5" d="M281.053 156.868c-15.522 0-28.106 12.585-28.106 28.109 0 15.524 12.584 28.109 28.106 28.109 41.392 0 74.947 33.56 74.947 74.957C356 329.441 322.445 363 281.053 363c-41.393 0-74.948-33.56-74.948-74.957 0-15.524-12.583-28.109-28.105-28.109s-28.105 12.585-28.105 28.109c0 41.398-33.555 74.957-74.948 74.957C33.555 363 0 329.44 0 288.043c0-41.398 33.555-74.957 74.947-74.957 15.522 0 28.106-12.585 28.106-28.109 0-15.524-12.584-28.109-28.106-28.109C33.555 156.868 0 123.308 0 81.911 0 40.513 33.555 6.954 74.947 6.954c41.393 0 74.948 33.56 74.948 74.957 0 15.524 12.583 28.109 28.105 28.109s28.105-12.585 28.105-28.109c0-41.398 33.555-74.957 74.948-74.957 41.392 0 74.947 33.56 74.947 74.957 0 41.398-33.555 74.957-74.947 74.957zm0-9.37c36.218 0 65.579-29.364 65.579-65.587s-29.361-65.587-65.58-65.587c-36.218 0-65.578 29.364-65.578 65.587 0 20.699-16.778 37.479-37.474 37.479-20.696 0-37.474-16.78-37.474-37.479 0-36.223-29.36-65.587-65.579-65.587-36.218 0-65.579 29.364-65.579 65.587s29.361 65.587 65.58 65.587c20.696 0 37.473 16.78 37.473 37.479 0 20.699-16.777 37.479-37.474 37.479-36.218 0-65.579 29.364-65.579 65.587s29.361 65.587 65.58 65.587c36.218 0 65.578-29.364 65.578-65.587 0-20.699 16.778-37.479 37.474-37.479 20.696 0 37.474 16.78 37.474 37.479 0 36.223 29.36 65.587 65.579 65.587 36.218 0 65.579-29.364 65.579-65.587s-29.361-65.587-65.58-65.587c-20.696 0-37.473-16.78-37.473-37.479 0-20.699 16.777-37.479 37.474-37.479zm0-9.37c-25.87 0-46.842 20.975-46.842 46.849 0 25.874 20.971 46.848 46.842 46.848 31.044 0 56.21 25.17 56.21 56.218 0 31.048-25.166 56.218-56.21 56.218-31.045 0-56.21-25.17-56.21-56.218 0-25.874-20.973-46.848-46.843-46.848-25.87 0-46.842 20.974-46.842 46.848 0 31.048-25.166 56.218-56.21 56.218-31.045 0-56.211-25.17-56.211-56.218 0-31.048 25.166-56.218 56.21-56.218 25.87 0 46.842-20.974 46.842-46.848s-20.971-46.848-46.842-46.848c-31.044 0-56.21-25.17-56.21-56.218 0-31.048 25.166-56.218 56.21-56.218 31.045 0 56.21 25.17 56.21 56.218 0 25.874 20.973 46.848 46.843 46.848 25.87 0 46.842-20.974 46.842-46.848 0-31.048 25.166-56.218 56.21-56.218 31.045 0 56.211 25.17 56.211 56.218 0 31.048-25.166 56.218-56.21 56.218zm0-9.369c25.87 0 46.842-20.974 46.842-46.848 0-25.873-20.972-46.848-46.842-46.848-25.87 0-46.842 20.975-46.842 46.848 0 31.048-25.167 56.218-56.211 56.218-31.044 0-56.21-25.17-56.21-56.218 0-25.873-20.972-46.848-46.843-46.848-25.87 0-46.842 20.975-46.842 46.848 0 25.874 20.972 46.848 46.842 46.848 31.045 0 56.21 25.17 56.21 56.218 0 31.048-25.165 56.218-56.21 56.218-25.87 0-46.842 20.974-46.842 46.848 0 25.873 20.972 46.848 46.842 46.848 25.87 0 46.842-20.975 46.842-46.848 0-31.048 25.167-56.218 56.211-56.218 31.044 0 56.21 25.17 56.21 56.218 0 25.873 20.972 46.848 46.843 46.848 25.87 0 46.842-20.975 46.842-46.848 0-25.874-20.972-46.848-46.842-46.848-31.045 0-56.21-25.17-56.21-56.218 0-31.048 25.165-56.218 56.21-56.218zm0-9.37c-36.219 0-65.58 29.365-65.58 65.588s29.361 65.587 65.58 65.587c20.696 0 37.473 16.78 37.473 37.479 0 20.699-16.777 37.478-37.473 37.478-20.697 0-37.474-16.78-37.474-37.478 0-36.223-29.36-65.587-65.579-65.587-36.218 0-65.579 29.364-65.579 65.587 0 20.699-16.777 37.478-37.474 37.478-20.696 0-37.473-16.78-37.473-37.478 0-20.699 16.777-37.479 37.473-37.479 36.219 0 65.58-29.364 65.58-65.587s-29.361-65.587-65.58-65.587c-20.696 0-37.473-16.78-37.473-37.479 0-20.699 16.777-37.478 37.473-37.478 20.697 0 37.474 16.78 37.474 37.478 0 36.223 29.36 65.587 65.579 65.587 36.218 0 65.579-29.364 65.579-65.587 0-20.699 16.777-37.478 37.474-37.478 20.696 0 37.473 16.78 37.473 37.478 0 20.699-16.777 37.479-37.473 37.479zm0-9.369c15.522 0 28.105-12.585 28.105-28.109 0-15.524-12.583-28.109-28.105-28.109s-28.106 12.585-28.106 28.11c0 14.33-4.02 27.72-10.995 39.105 11.383-6.976 24.772-10.997 39.1-10.997zM217.1 145.871c-11.384 6.976-24.773 10.997-39.101 10.997s-27.717-4.021-39.1-10.997c6.974 11.385 10.995 24.776 10.995 39.106 0 14.33-4.021 27.721-10.996 39.106 11.384-6.976 24.773-10.997 39.101-10.997s27.717 4.021 39.1 10.997c-6.974-11.385-10.995-24.776-10.995-39.106 0-14.33 4.021-27.721 10.996-39.106zm24.85 103.066c6.976 11.385 10.996 24.776 10.996 39.106 0 15.524 12.584 28.109 28.106 28.109 15.522 0 28.105-12.585 28.105-28.109 0-15.524-12.583-28.109-28.105-28.109-14.329 0-27.718-4.021-39.101-10.997zM103.054 81.911c0-15.524-12.584-28.109-28.106-28.109-15.522 0-28.105 12.585-28.105 28.11 0 15.523 12.583 28.108 28.105 28.108 14.329 0 27.718 4.021 39.101 10.997-6.975-11.385-10.995-24.776-10.995-39.106zM74.947 259.934c-15.522 0-28.105 12.585-28.105 28.109 0 15.524 12.583 28.109 28.105 28.109s28.106-12.585 28.106-28.109c0-14.33 4.02-27.721 10.995-39.106-11.383 6.976-24.772 10.997-39.1 10.997z" filter="url(#a)" transform="translate(-156 1)"/>
        <path d="M125.053 150.914c-15.522 0-28.106 12.585-28.106 28.109 0 15.524 12.584 28.109 28.106 28.109 41.392 0 74.947 33.56 74.947 74.957 0 41.398-33.555 74.957-74.947 74.957-41.393 0-74.948-33.56-74.948-74.957 0-15.524-12.583-28.109-28.105-28.109s-28.105 12.585-28.105 28.109c0 41.398-33.555 74.957-74.948 74.957-41.392 0-74.947-33.56-74.947-74.957 0-41.398 33.555-74.957 74.947-74.957 15.522 0 28.106-12.585 28.106-28.109 0-15.524-12.584-28.109-28.106-28.109-41.392 0-74.947-33.56-74.947-74.957C-156 34.559-122.445 1-81.053 1-39.66 1-6.105 34.56-6.105 75.957c0 15.524 12.583 28.109 28.105 28.109S50.105 91.48 50.105 75.957C50.105 34.559 83.66 1 125.053 1 166.445 1 200 34.56 200 75.957c0 41.398-33.555 74.957-74.947 74.957zm0-9.37c36.218 0 65.579-29.364 65.579-65.587S161.27 10.37 125.052 10.37c-36.218 0-65.578 29.364-65.578 65.587 0 20.699-16.778 37.479-37.474 37.479-20.696 0-37.474-16.78-37.474-37.479 0-36.223-29.36-65.587-65.579-65.587-36.218 0-65.579 29.364-65.579 65.587s29.361 65.587 65.58 65.587c20.696 0 37.473 16.78 37.473 37.479 0 20.699-16.777 37.479-37.474 37.479-36.218 0-65.579 29.364-65.579 65.587s29.361 65.587 65.58 65.587c36.218 0 65.578-29.364 65.578-65.587 0-20.699 16.778-37.479 37.474-37.479 20.696 0 37.474 16.78 37.474 37.479 0 36.223 29.36 65.587 65.579 65.587 36.218 0 65.579-29.364 65.579-65.587s-29.361-65.587-65.58-65.587c-20.696 0-37.473-16.78-37.473-37.479 0-20.699 16.777-37.479 37.474-37.479zm0-9.37c-25.87 0-46.842 20.975-46.842 46.849 0 25.874 20.971 46.848 46.842 46.848 31.044 0 56.21 25.17 56.21 56.218 0 31.048-25.166 56.218-56.21 56.218-31.045 0-56.21-25.17-56.21-56.218 0-25.874-20.973-46.848-46.843-46.848-25.87 0-46.842 20.974-46.842 46.848 0 31.048-25.166 56.218-56.21 56.218-31.045 0-56.211-25.17-56.211-56.218 0-31.048 25.166-56.218 56.21-56.218 25.87 0 46.842-20.974 46.842-46.848s-20.971-46.848-46.842-46.848c-31.044 0-56.21-25.17-56.21-56.218 0-31.048 25.166-56.218 56.21-56.218 31.045 0 56.21 25.17 56.21 56.218 0 25.874 20.973 46.848 46.843 46.848 25.87 0 46.842-20.974 46.842-46.848 0-31.048 25.166-56.218 56.21-56.218 31.045 0 56.211 25.17 56.211 56.218 0 31.048-25.166 56.218-56.21 56.218zm0-9.369c25.87 0 46.842-20.974 46.842-46.848 0-25.873-20.972-46.848-46.842-46.848-25.87 0-46.842 20.975-46.842 46.848 0 31.048-25.167 56.218-56.211 56.218-31.044 0-56.21-25.17-56.21-56.218 0-25.873-20.972-46.848-46.843-46.848-25.87 0-46.842 20.975-46.842 46.848 0 25.874 20.972 46.848 46.842 46.848 31.045 0 56.21 25.17 56.21 56.218 0 31.048-25.165 56.218-56.21 56.218-25.87 0-46.842 20.974-46.842 46.848 0 25.873 20.972 46.848 46.842 46.848 25.87 0 46.842-20.975 46.842-46.848 0-31.048 25.167-56.218 56.211-56.218 31.044 0 56.21 25.17 56.21 56.218 0 25.873 20.972 46.848 46.843 46.848 25.87 0 46.842-20.975 46.842-46.848 0-25.874-20.972-46.848-46.842-46.848-31.045 0-56.21-25.17-56.21-56.218 0-31.048 25.165-56.218 56.21-56.218zm0-9.37c-36.219 0-65.58 29.365-65.58 65.588s29.361 65.587 65.58 65.587c20.696 0 37.473 16.78 37.473 37.479 0 20.699-16.777 37.478-37.473 37.478-20.697 0-37.474-16.78-37.474-37.478 0-36.223-29.36-65.587-65.579-65.587-36.218 0-65.579 29.364-65.579 65.587 0 20.699-16.777 37.478-37.474 37.478-20.696 0-37.473-16.78-37.473-37.478 0-20.699 16.777-37.479 37.473-37.479 36.219 0 65.58-29.364 65.58-65.587s-29.361-65.587-65.58-65.587c-20.696 0-37.473-16.78-37.473-37.479 0-20.699 16.777-37.478 37.473-37.478 20.697 0 37.474 16.78 37.474 37.478 0 36.223 29.36 65.587 65.579 65.587 36.218 0 65.579-29.364 65.579-65.587 0-20.699 16.777-37.478 37.474-37.478 20.696 0 37.473 16.78 37.473 37.478 0 20.699-16.777 37.479-37.473 37.479zm0-9.37c15.522 0 28.105-12.584 28.105-28.108 0-15.524-12.583-28.109-28.105-28.109S96.947 60.433 96.947 75.957c0 14.33-4.02 27.721-10.995 39.106 11.383-6.976 24.772-10.997 39.1-10.997zM61.1 139.918C49.717 146.893 36.328 150.914 22 150.914s-27.717-4.021-39.1-10.997c6.974 11.385 10.995 24.776 10.995 39.106 0 14.33-4.021 27.721-10.996 39.106C-5.717 211.153 7.672 207.132 22 207.132s27.717 4.021 39.1 10.997c-6.974-11.385-10.995-24.776-10.995-39.106 0-14.33 4.021-27.721 10.996-39.106zm24.85 103.066c6.976 11.385 10.996 24.776 10.996 39.106 0 15.524 12.584 28.109 28.106 28.109 15.522 0 28.105-12.585 28.105-28.11 0-15.523-12.583-28.108-28.105-28.108-14.329 0-27.718-4.021-39.101-10.997zM-52.946 75.957c0-15.524-12.584-28.109-28.106-28.109-15.522 0-28.105 12.585-28.105 28.109 0 15.524 12.583 28.109 28.105 28.109 14.329 0 27.718 4.021 39.101 10.997-6.975-11.385-10.995-24.776-10.995-39.106zM-81.053 253.98c-15.522 0-28.105 12.585-28.105 28.109 0 15.524 12.583 28.109 28.105 28.109s28.106-12.585 28.106-28.11c0-14.33 4.02-27.72 10.995-39.105-11.383 6.976-24.772 10.997-39.1 10.997z"/>
    </g>
</svg>
